#!OML:ASF F:\VICON\USERDATA\INSTALL\rory3\rory3.ASF
:FULLY-SPECIFIED
:DEGREES
140
root -0.4046781312326361 17.624599838038602 46.25481252402241 0.1509934912391575 6.020084369518892 0.28946096858686277
lfemur -23.177437100056196 -0.17243921576974014 -26.902554977453065
ltibia -7.596024951822272
lfoot 19.151318063300938 -25.477687791572837
ltoes -20.089875351720053
rfemur -3.134770585000153 -0.5220655841594368 30.96529547487445
rtibia 38.273116358124064
rfoot 21.93284547346579 1.2069193194339851
rtoes -1.419716022019701
lowerback 1.0 -1.5846658641171818 -0.819923861229465
upperback -1.0939730731825135 -0.3730311420071284 0.4471713398828854
thorax -8.874270286032054 -0.2097376733115886 1.611893331500653
lowerneck -16.272070874893878 -4.682652442761945 -1.8256366339626364
upperneck 14.72711984415909 -4.036237213153761 1.7648532402411763
head 7.408579561007917 -2.41293865188015 0.5177528997064175
lclavicle 6.564856050651032e-15 -1.999185554711538e-14
lhumerus -62.67946008626004 -3.5253371289367035 92.73893738174851
lradius 127.27342113137092
lwrist 41.97761138327219
lhand -31.14528685286544 -4.271166864529443
lfingers nan
lthumb -4.607255383244294 25.717345426650308
rclavicle 7.875355427425698e-15 -1.884833459592455e-14
rhumerus -60.072185143377325 5.466620488187113 -92.97820804280113
rradius 123.24860701555082
rwrist -2.4959784627408794
rhand -20.166643229345706 1.0
rfingers nan
rthumb 5.736460095017794 8.546986417561723
141
root -0.390645697993739 17.569263438015483 46.97479866405543 0.129112268962853 6.087737423984766 0.7444441632126608
lfemur -22.498497868295477 -0.9348350738579638 -27.169438532780006
ltibia -4.886957070759593
lfoot 21.299311708282584 -27.73910020222962
ltoes 0.25289829429647526
rfemur -4.317073094758062 -2.0802303824818598 29.273224043232556
rtibia 42.287406542142584
rfoot 19.949004204606425 1.6941616775461865
rtoes 0.1693926285116656
lowerback 1.0 -1.6728146674468263 -1.039726504441331
upperback -0.7749667853332842 -0.66525446153719 0.2996843526076496
thorax -8.407661817842177 -0.31392574947419755 1.733530817546327
lowerneck -15.462494975243192 -4.75260567766744 -2.091177207872783
upperneck 14.020271050650889 -4.122850486588394 2.309891327515625
head 7.093923471439669 -2.3923848472562494 0.777434617566273
lclavicle 2.1713537199170747e-14 2.4595116159022187e-17
lhumerus -61.52418323848397 -3.6545407888912056 92.73563735668715
lradius 127.88599782165397
lwrist 41.18208797045113
lhand -31.42054711455603 -4.774605233260996
lfingers nan
lthumb -4.8920113865273045 25.177388661801402
rclavicle 2.3107232008583985e-14 1.2309166895630583e-15
rhumerus -60.4410782790548 4.974296858793768 -92.58654943252651
rradius 121.86064621203477
rwrist 0.02252297104767642
rhand -19.472412968805923 1.0
rfingers nan
rthumb 6.405849803790501 6.785865375839987
142
root -0.3879596429284747 17.51669817250569 47.22629604794816 0.32387746872766066 5.829612603601971 1.0399243492822476
lfemur -21.2764346366752 -1.0273238697588605 -27.59464415880335
ltibia -1.668038292838638
lfoot 15.302234835860796 -28.909943689805683
ltoes -0.3000363343957684
rfemur -5.895489451151269 -3.304958352949898 27.38773690352458
rtibia 46.28141266435974
rfoot 18.283003540434372 1.6471931424804582
rtoes -1.0564758096144384
lowerback 1.0 -1.6603009767723338 -1.471913780038683
upperback -0.40789131653732436 -0.8220278315971925 0.17111420127949617
thorax -7.5624497807318525 -0.3607573948016229 1.935254413218995
lowerneck -15.984718259775011 -4.813970551003907 -2.391425197740497
upperneck 13.949074916468795 -4.273329621020258 2.982014509098409
head 7.19270394244568 -2.3715149100705615 1.0724392009807397
lclavicle 1.5738114799612846e-14 8.962722025469981e-15
lhumerus -59.964667184391345 -3.810950104621165 92.66850562766376
lradius 128.37758079507603
lwrist 39.590520810035564
lhand -31.840957290606138 -4.172868613723308
lfingers nan
lthumb -5.292737756335838 25.761724302732137
rclavicle 1.695407684229088e-14 1.0018679408751818e-14
rhumerus -60.578133046835866 4.567729314637712 -92.10963717270114
rradius 120.27948574919517
rwrist 1.6544198925906883
rhand -19.372401739921376 1.0
rfingers nan
rthumb 6.49790195182065 5.859708543045096
143
root -0.4027172473134298 17.48126700445149 46.9807103460711 0.4622635990094137 5.03981717533149 1.1281658462383954
lfemur -20.331668894078458 -1.03562570476235 -27.817291128503676
ltibia 1.8276787650230872
lfoot 12.390684604452526 -27.74849183872104
ltoes 7.30728011173724
rfemur -7.763191646568663 -3.9992471650174926 25.656295509020577
rtibia 50.23511388265994
rfoot 16.868050613343893 0.876542279077527
rtoes -2.1010377354515968
lowerback 1.0 -1.5216909929134916 -1.980232208350116
upperback -0.2668700647130825 -0.7761544361282742 0.07725121289685877
thorax -7.435138120476216 -0.33279824124487883 2.136162117202948
lowerneck -15.323398112917234 -4.731910186434233 -2.1226443366858208
upperneck 13.249108517468947 -4.273496720621567 2.9252856435972254
head 6.841681556869061 -2.331863453656465 1.0421015606117674
lclavicle -1.7438717202156872e-14 -1.3712840078247942e-14
lhumerus -58.542336420352314 -3.9808224885196815 92.61682482010713
lradius 129.01786766473214
lwrist 37.694858140341694
lhand -32.697632589010944 -3.5350732914181773
lfingers nan
lthumb -6.12366618081578 26.354878948276664
rclavicle -1.5636460521565914e-14 -1.2523168838197758e-14
rhumerus -60.728524164096115 4.130154759733843 -91.89092148559617
rradius 118.4885793896364
rwrist 3.774942272135977
rhand -19.12700935705227 1.0
rfingers nan
rthumb 6.715723622515858 3.806006986350319
144
root -0.41449965130194344 17.44877251713565 46.740883936862375 0.3517489273667662 4.271186429628052 1.078858164351983
lfemur -19.000599880615304 -0.7671049701527726 -28.084893790931638
ltibia 5.370426858156229
lfoot 4.627330263641763 -23.80583439105403
ltoes -1.3413964198640027
rfemur -9.769902938508977 -4.467140472806467 24.25810706035979
rtibia 54.09473452993775
rfoot 15.620045629278053 -0.2769583180257271
rtoes -2.5433359137253517
lowerback 1.0 -1.3615024659132426 -2.1744058381555806
upperback -0.09263314396817468 -0.6543109288803355 0.020553894480690893
thorax -7.765484364672474 -0.26943965282769805 2.218703328538175
lowerneck -14.607868906805214 -4.659090052091204 -1.7268829413694646
upperneck 11.972013077418449 -4.27561110187989 2.7009894480372836
head 6.261357996198189 -2.306254493442755 0.9261761895736402
lclavicle 2.4731902984147402e-14 -8.040133770902082e-15
lhumerus -57.06408156764631 -4.216427512232963 92.57156218530649
lradius 129.5798704984537
lwrist 35.50477771885542
lhand -33.191567616719965 -3.2116003588322686
lfingers nan
lthumb -6.615374242054993 26.668569767679337
rclavicle 2.6423131105657452e-14 -6.752719222312627e-15
rhumerus -60.85058937402516 3.693451919649009 -91.64277557475238
rradius 116.65155894162874
rwrist 4.981717675569396
rhand -18.710494695507812 1.0
rfingers nan
rthumb 7.127578049527088 2.163476521817044
